<?xml version="1.0" encoding="UTF-8" standalone="no"?>
<svg xmlns="http://www.w3.org/2000/svg" height="30" width="30" version="1.1">
	<defs>
		<linearGradient id="XMLID_11_" x1="-102.16" gradientUnits="userSpaceOnUse" x2="-102.16" gradientTransform="matrix(1.0135544,0,0,1.0135544,233.46204,21.757303)" y1="220.34" y2="-5.0697">
			<stop stop-color="#ED0000" offset="0.005615"/>
			<stop stop-color="#8D0000" offset="0.23942"/>
			<stop stop-color="#BD0000" offset="0.54494"/>
			<midPointStop stop-color="#0035ED" offset="0.005615"/>
			<midPointStop stop-color="#0035ED" offset="0.5"/>
			<midPointStop stop-color="#00008D" offset="0.544944"/>
			<midPointStop stop-color="#00008D" offset="0.5"/>
			<midPointStop stop-color="#0053BD" offset="1"/>
		</linearGradient>
		<linearGradient id="XMLID_12_" x1="-103.35" gradientUnits="userSpaceOnUse" x2="-103.35" gradientTransform="matrix(1.0135544,0,0,1.0135544,233.46204,21.757303)" y1="222.21" y2="-8.1996">
			<stop stop-color="#FF4242" offset="0.20369"/>
			<stop stop-color="#FF9494" offset="0.57303"/>
			<stop stop-color="#FFDCDC" offset="1"/>
			<midPointStop stop-color="#428AFF" offset="0.005615"/>
			<midPointStop stop-color="#428AFF" offset="0.5"/>
			<midPointStop stop-color="#94CAFF" offset="0.573034"/>
			<midPointStop stop-color="#94CAFF" offset="0.5"/>
			<midPointStop stop-color="#DCF0FF" offset="1"/>
		</linearGradient>
		<linearGradient id="XMLID_13_" x1="-102.74" gradientUnits="userSpaceOnUse" x2="-102.74" gradientTransform="matrix(1.0135544,0,0,1.0135544,233.46204,21.757303)" y1="217.5" y2="-5.3081">
			<stop stop-color="#FFF" offset="0"/>
			<stop stop-color="#F00" offset="0.5"/>
			<stop stop-color="#FFC9C9" offset="1"/>
			<midPointStop stop-color="#FFFFFF" offset="0"/>
			<midPointStop stop-color="#FFFFFF" offset="0.5"/>
			<midPointStop stop-color="#006DFF" offset="0.5"/>
			<midPointStop stop-color="#006DFF" offset="0.5"/>
			<midPointStop stop-color="#C9E6FF" offset="1"/>
		</linearGradient>
		<radialGradient id="XMLID_14_" gradientUnits="userSpaceOnUse" cy="218.75" cx="-103.07" gradientTransform="matrix(1.4379295,0,0,1.4379295,277.47587,-185.04224)" r="69.963">
			<stop stop-color="#FFF" offset="0.60112"/>
			<stop stop-color="#EAEAF0" offset="0.8764"/>
			<stop stop-color="#E6E6ED" offset="0.91417"/>
			<stop stop-color="#DBDBE5" offset="0.94998"/>
			<stop stop-color="#C8C8D7" offset="0.98491"/>
			<stop stop-color="#BDBDCF" offset="1"/>
			<midPointStop stop-color="#FFFFFF" offset="0.601124"/>
			<midPointStop stop-color="#FFFFFF" offset="0.5"/>
			<midPointStop stop-color="#EAEAF0" offset="0.876404"/>
			<midPointStop stop-color="#EAEAF0" offset="0.717949"/>
			<midPointStop stop-color="#BDBDCF" offset="1"/>
		</radialGradient>
		<linearGradient id="XMLID_20_" x1="117.74" gradientUnits="userSpaceOnUse" x2="137.88" gradientTransform="matrix(1.0135544,0,0,1.0135544,233.46204,21.757303)" y1="123.59" y2="123.59">
			<stop stop-color="#FFF" offset="0"/>
			<stop stop-color="#585868" offset="1"/>
			<midPointStop stop-color="#FFFFFF" offset="0"/>
			<midPointStop stop-color="#FFFFFF" offset="0.5"/>
			<midPointStop stop-color="#585868" offset="1"/>
		</linearGradient>
	</defs>
	<g transform="translate(-353.32143,-583.32647)">
		<g transform="matrix(0.23123741,0,0,0.23123741,325.22787,580.70094)">
			<g transform="matrix(1.12132,0,0,1.12132,-158.821,-16.9915)">
				<g transform="matrix(0.470249,0,0,0.470249,247.643,22.9371)">
					<path fill="url(#XMLID_11_)" d="m4.9805,128c0,67.832,55.188,123.02,123.02,123.02,67.831,0,123.02-55.189,123.02-123.02,0-67.833-55.19-123.02-123.02-123.02-67.832,0-123.02,55.188-123.02,123.02z"/>
					<path fill="url(#XMLID_12_)" d="m12.38,128c0,63.754,51.868,115.62,115.62,115.62s115.62-51.867,115.62-115.62c0-63.754-51.86-115.62-115.62-115.62-63.752-0.002-115.62,51.866-115.62,115.62z"/>
					<path fill="url(#XMLID_13_)" d="m16.285,128c0,61.604,50.119,111.71,111.72,111.71,61.602,0,111.72-50.108,111.72-111.71,0-61.598-50.11-111.72-111.72-111.72-61.591,0.005-111.72,50.122-111.72,111.72z"/>
					<path opacity="0.8" fill="#FFF" d="m128,30.242c-56.103,0-101.75,45.638-101.75,101.75,0,56.103,45.648,101.74,101.75,101.74,56.104,0,101.75-45.637,101.75-101.74,0-56.109-45.644-101.75-101.75-101.75z"/>
					<path fill="#8d0000" d="m26.251,128c0,56.106,45.648,101.74,101.75,101.74,56.11,0,101.75-45.63,101.75-101.74,0-56.103-45.64-101.75-101.75-101.75-56.1,0-101.75,45.645-101.75,101.75z"/>
					<path fill="url(#XMLID_14_)" d="m28.743,128c0,54.729,44.526,99.253,99.259,99.253,54.731,0,99.26-44.524,99.26-99.253s-44.528-99.257-99.26-99.257-99.259,44.528-99.259,99.257z"/>
					<path fill="#711" d="m36.957,124.75c-1.1045,0-2,0.89551-2,2v2.4868c0,1.1045,0.89551,2,2,2h17.441c1.1045,0,2-0.8955,2-2v-2.49c0-1.1045-0.89551-2-2-2h-17.441z"/>
					<rect height="2.4868" width="17.441" y="126.75" x="36.957" fill="#a00000"/>
					<path fill="#711" d="m201.06,124.75c-1.1045,0-2,0.89551-2,2v2.4868c0,1.1045,0.89551,2,2,2h17.448c1.1045,0,2-0.8955,2-2v-2.49c0-1.1045-0.89551-2-2-2h-17.45z"/>
					<rect height="2.4868" width="17.448" y="126.75" x="201.06" fill="#a00000"/>
					<path fill="#711" d="m126.76,199.06c-1.1045,0-2,0.89551-2,2v17.441c0,1.1045,0.89551,2,2,2h2.4922c1.1045,0,2-0.89551,2-2v-17.44c0-1.1045-0.89551-2-2-2h-2.49z"/>
					<rect height="17.441" width="2.4922" y="201.06" x="126.76" fill="#a00000"/>
					<path fill="#711" d="m126.76,34.954c-1.1045,0-2,0.89551-2,2v17.441c0,1.1045,0.89551,2,2,2h2.4922c1.1045,0,2-0.89551,2-2v-17.441c0-1.1045-0.89551-2-2-2h-2.49z"/>
					<rect height="17.441" width="2.4922" y="36.954" x="126.76" fill="#a00000"/>
					<path fill="url(#XMLID_20_)" d="m135.74,125.43c-1.081-3.2427-4.1377-5.5898-7.7392-5.5898-4.2285,0-7.7139,3.2354-8.1172,7.3623,5.335,0.38477,10.731-0.0234,15.856-1.7725z"/>
				</g>
				<g stroke-linejoin="round" transform="matrix(0.983242,-0.182303,0.182303,0.983242,-10.4584,57.7054)" stroke-linecap="round" stroke-miterlimit="4" stroke-width="7.71321964" fill="none">
					<path d="m287.13,48.53,20.641,35.752" stroke="#e0e0e0" stroke-dasharray="none"/>
					<path d="m307.77,42.999,0,41.283" stroke="#bfbfbf" stroke-dasharray="none"/>
					<path d="M328.41,48.53,307.77,84.282" stroke="#808080" stroke-dasharray="none"/>
					<path d="m280.5,68.534,27.277,15.749,35.751-20.641" stroke="#000"/>
				</g>
			</g>
		</g>
	</g>
</svg>
