<?xml version="1.0" encoding="utf-8"?>
<!-- Generator: Adobe Illustrator 15.0.0, SVG Export Plug-In . SVG Version: 6.00 Build 0)  -->
<!DOCTYPE svg PUBLIC "-//W3C//DTD SVG 1.1//EN" "http://www.w3.org/Graphics/SVG/1.1/DTD/svg11.dtd">
<svg version="1.1"
	 id="svg2465" xmlns:cc="http://web.resource.org/cc/" xmlns:dc="http://purl.org/dc/elements/1.1/" xmlns:rdf="http://www.w3.org/1999/02/22-rdf-syntax-ns#"
	 xmlns="http://www.w3.org/2000/svg" xmlns:xlink="http://www.w3.org/1999/xlink" x="0px" y="0px" width="190.93px"
	 height="190.93px" viewBox="0 0 190.93 190.93" enable-background="new 0 0 190.93 190.93" xml:space="preserve">
<g id="Layer_1">
	<g id="g2468">
		<g id="g2472">
			<path id="path2315_2_" fill="#E6E6E6" d="M1.645,156.619l14.409-4.24c3.869-0.37,13.453-6,14.485-6.43
				c4.103-1.7,12.388-3.45,14.033-5.101c9.565-0.79,10.312-1.34,15.326-8.989c6.436-9.82,1.295-26.37-4.865-33.479
				c-3.154-3.636-1.924-8.1-4.33-16.439c-1.746-6.05-0.862-11.982-1.916-12.632c-3.86-2.39-4.98-20.431-1.655-26.662
				c1.751-3.284,4.777-9.623,6.726-14.088c2.357-5.401,4.96-8.118,7.772-8.118c2.325,0,4.229-0.752,4.229-1.673
				c0-4.337,15.267-9.701,24.61-8.648c10.601,1.194,29.511,9.448,29.511,12.882c0,1.193,1.949,4.646,4.33,7.677
				c2.38,3.026,4.329,7.214,4.329,9.31s1.58,4.411,3.511,5.149c3.069,1.179,3.31,4.236,1.92,24.546
				c-1.41,20.73-2.13,23.671-6.75,27.641c-4.34,3.726-7.88,9.166-7.88,19.626c0,8.93,1.1,13.57,3.81,16.39
				c7.06,7.36,23.9,12.13,33.61,13.601c5.319,0.81,6.89,1.979,10.17,2.609l23.399,13.1l-0.91,7.78l-0.08,18.88h-93.35H1.561
				L1.645,156.619L1.645,156.619z"/>
		</g>
	</g>
</g>
</svg>
