<svg xmlns="http://www.w3.org/2000/svg" viewBox="0 0 480 177"><defs><style>.a{fill:#fff;}.b{fill:#efd01d;}.c{fill:#231f20;}</style></defs><title>Pantheon_Tag_Color</title><rect class="a" width="480" height="177"/><polygon class="b" points="26.8 19.96 39.39 49.5 23.36 49.5 28.66 62.5 61.15 62.5 26.8 19.96"/><polygon class="b" points="69.52 127.5 64.15 114.5 56.72 114.5 46.1 89.5 39.43 89.5 50.05 114.5 31.15 114.5 66.08 157.04 53.49 127.5 69.52 127.5"/><path d="M73.84,75.5c0.39,0,1.31-.49,1.31-5s-0.92-5-1.31-5H51.46l4.25,10H73.84Z"/><path d="M60.8,87.5h15c0.4,0,1.31-.49,1.31-5s-0.92-5-1.31-5H56.56Z"/><path d="M73.84,101.5H53.62l4.25,10h16c0.39,0,1.31-.49,1.31-5S74.24,101.5,73.84,101.5Z"/><path d="M75.84,89.5H48.53l4.25,10H75.84c0.4,0,1.31-.49,1.31-5S76.24,89.5,75.84,89.5Z"/><path d="M73.84,101.5H53.62l4.25,10h16c0.39,0,1.31-.49,1.31-5S74.24,101.5,73.84,101.5Z"/><path d="M75.84,89.5H48.53l4.25,10H75.84c0.4,0,1.31-.49,1.31-5S76.24,89.5,75.84,89.5Z"/><path d="M45.25,87.5l-5.09-12h2.43l5.1,12H58.5l-9.34-22H25.83c-1.8,0-2.78,0-3.59,2.6-1,3.11-1.08,9-1.08,20.4s0.11,17.29,1.08,20.4c0.81,2.6,1.8,2.6,3.59,2.6H46.29l-10.14-24h9.09Z"/><path d="M162.15,68.53h-11l-16,41h11.22l2.81-7h14.57l2.65,7h11.28Zm-10,26,4.37-13.12h0.11l4.32,13.12h-8.8Z"/><path d="M120.34,68.5H104.15v41h11v-14h5.56c9.23,0,14.41-4,14.41-13.61C135.13,72.55,129.09,68.5,120.34,68.5Zm-3.84,19h-1.35v-10h1.35c4.11,0,7.61-.08,7.61,5.05C124.12,87.5,120.34,87.5,116.51,87.5Z"/><polygon points="327.15 93.5 338.15 93.52 338.15 84.5 327.15 84.5 327.15 77.5 342.15 77.5 342.15 68.5 316.15 68.5 316.15 109.5 342.15 109.5 342.15 99.5 327.15 99.5 327.15 93.5"/><polygon points="231.15 79.5 241.15 79.5 241.21 109.5 252.15 109.5 252.15 79.5 262.15 79.5 262.15 68.5 231.15 68.5 231.15 79.5"/><polygon points="296.15 84.5 281.15 84.5 281.15 68.5 270.15 68.5 270.15 109.5 281.15 109.5 281.15 93.5 296.15 93.5 296.15 109.5 307.15 109.5 307.15 68.5 296.15 68.5 296.15 84.5"/><path d="M368.65,79.5a9.5,9.5,0,1,1-9.5,9.5,9.51,9.51,0,0,1,9.5-9.5m0-11A20.5,20.5,0,1,0,389.15,89a20.5,20.5,0,0,0-20.5-20.5h0Z"/><polygon points="425.12 91.46 407.5 68.5 397.15 68.5 397.15 109.5 408.19 109.5 408.15 86.5 424.99 109.5 436.15 109.5 436.15 68.5 425.15 68.5 425.12 91.46"/><polygon points="212.12 91.46 194.5 68.5 184.15 68.5 184.15 109.5 195.19 109.5 195.15 86.5 211.99 109.5 223.15 109.5 223.15 68.5 212.15 68.5 212.12 91.46"/><path class="c" d="M442.85,76.67a7.67,7.67,0,0,1,.63-3.11,8.13,8.13,0,0,1,4.26-4.26,7.93,7.93,0,0,1,6.21,0,8.13,8.13,0,0,1,4.26,4.26,7.93,7.93,0,0,1,0,6.21A8.13,8.13,0,0,1,454,84a7.93,7.93,0,0,1-6.21,0,8.13,8.13,0,0,1-4.26-4.26A7.67,7.67,0,0,1,442.85,76.67Zm1.42,0a6.43,6.43,0,0,0,.52,2.56,6.56,6.56,0,0,0,3.5,3.5,6.61,6.61,0,0,0,5.12,0,6.55,6.55,0,0,0,3.5-3.5,6.61,6.61,0,0,0,0-5.12,6.55,6.55,0,0,0-3.5-3.5,6.6,6.6,0,0,0-5.12,0,6.56,6.56,0,0,0-3.5,3.5A6.43,6.43,0,0,0,444.27,76.67Zm3.5-4.62h3.53a3.55,3.55,0,0,1,2.44.71,2.61,2.61,0,0,1,.79,2,2.42,2.42,0,0,1-.62,1.81,2.58,2.58,0,0,1-1.55.71l2.37,3.87H453l-2.28-3.74h-1.23v3.74h-1.68V72Zm1.68,4h1.23c0.26,0,.52,0,0.77,0a2.32,2.32,0,0,0,.7-0.16,1.19,1.19,0,0,0,.51-0.39,1.4,1.4,0,0,0,0-1.42,1.18,1.18,0,0,0-.51-0.39,2.13,2.13,0,0,0-.7-0.15l-0.77,0h-1.23V76Z"/><path d="M117.19,141.48H115l-0.62-12.16q-0.1-1.71-.1-3.55h-0.08q-0.32.91-.77,1.95t-6.35,13.77h-2.19l-0.78-18.42h2.14l0.39,11.36,0,1.11q0,1.24-.13,3.25h0.08q1.12-3.06,2-4.83l5.1-10.89H116l0.54,10.84q0.11,1.93.11,3.83v1h0.11q0.95-2.82,1.65-4.46l4.88-11.25h2.29Z"/><path d="M129,141.73a4.82,4.82,0,0,1-3.64-1.37,5.26,5.26,0,0,1-1.32-3.81,11.34,11.34,0,0,1,.94-4.54,8.41,8.41,0,0,1,2.49-3.38,5.42,5.42,0,0,1,3.42-1.21,4.33,4.33,0,0,1,2.9.84,2.92,2.92,0,0,1,1,2.34,4,4,0,0,1-2.09,3.56,11.45,11.45,0,0,1-6,1.29h-0.42l-0.05,1a3.9,3.9,0,0,0,.78,2.58,3,3,0,0,0,2.4.93,6.24,6.24,0,0,0,1.63-.23,12.49,12.49,0,0,0,2.09-.83v1.84a11.34,11.34,0,0,1-2.09.78A8.47,8.47,0,0,1,129,141.73Zm1.75-12.51a3.37,3.37,0,0,0-2.44,1.18,7.74,7.74,0,0,0-1.75,3.29h0.15a10.28,10.28,0,0,0,4.4-.75,2.35,2.35,0,0,0,1.53-2.17,1.47,1.47,0,0,0-.46-1.11A2,2,0,0,0,130.72,129.22Z"/><path d="M141.8,141.73a3.67,3.67,0,0,1-2.15-.64,3.93,3.93,0,0,1-1.39-1.75h-0.13l-0.88,2.14h-1.58l4.16-19.61h2.12q-0.64,3-1,4.67t-1,3.79h0.11a9.18,9.18,0,0,1,2.31-2.19,4.44,4.44,0,0,1,2.35-.7,3.35,3.35,0,0,1,2.77,1.25,5.36,5.36,0,0,1,1,3.43,13.42,13.42,0,0,1-.86,4.87,8.16,8.16,0,0,1-2.41,3.49A5.38,5.38,0,0,1,141.8,141.73Zm2.34-12.54a3.64,3.64,0,0,0-2.46,1.2,8.53,8.53,0,0,0-2,3,9.78,9.78,0,0,0-.74,3.72,3,3,0,0,0,.7,2.12,2.66,2.66,0,0,0,2,.74,3.33,3.33,0,0,0,2.33-1,7.17,7.17,0,0,0,1.73-2.9,12.1,12.1,0,0,0,.66-4Q146.38,129.19,144.14,129.19Z"/><path d="M158.52,137.56a3.69,3.69,0,0,1-1.39,3.07,6.18,6.18,0,0,1-3.93,1.1,8.38,8.38,0,0,1-3.84-.87v-2a7.85,7.85,0,0,0,1.9.82,7,7,0,0,0,1.89.29,3.84,3.84,0,0,0,2.39-.63,2,2,0,0,0,.81-1.61,1.74,1.74,0,0,0-.44-1.21,8.86,8.86,0,0,0-1.9-1.35,7.65,7.65,0,0,1-2.32-1.8,3.32,3.32,0,0,1-.68-2.09,3.48,3.48,0,0,1,1.27-2.8,5.05,5.05,0,0,1,3.35-1.06,9.75,9.75,0,0,1,4.16.93l-0.68,1.73-0.71-.32a7,7,0,0,0-2.77-.54,2.82,2.82,0,0,0-1.84.55,1.85,1.85,0,0,0-.22,2.63,7.9,7.9,0,0,0,1.85,1.3,10.76,10.76,0,0,1,1.93,1.3,3.75,3.75,0,0,1,.88,1.17A3.29,3.29,0,0,1,158.52,137.56Z"/><path d="M162.6,141.48h-2.12l2.95-13.81h2.12ZM164,124.14a1.66,1.66,0,0,1,.4-1.15,1.34,1.34,0,0,1,1-.45,1,1,0,0,1,1.11,1.13,1.71,1.71,0,0,1-.42,1.17,1.27,1.27,0,0,1-1,.48,1.17,1.17,0,0,1-.83-0.31A1.15,1.15,0,0,1,164,124.14Z"/><path d="M170.7,139.75a6.79,6.79,0,0,0,1.81-.33V141a5.81,5.81,0,0,1-1.06.3,5.42,5.42,0,0,1-1,.13,3.5,3.5,0,0,1-2.41-.75,2.84,2.84,0,0,1-.84-2.24,9.14,9.14,0,0,1,.23-1.89L169,129h-2.17l0.18-.92,2.33-1,1.58-2.87h1.24l-0.69,3.18h3.45l-0.33,1.6h-3.44l-1.63,7.61a9,9,0,0,0-.23,1.66,1.5,1.5,0,0,0,.37,1.08A1.35,1.35,0,0,0,170.7,139.75Z"/><path d="M179.73,141.73a4.82,4.82,0,0,1-3.64-1.37,5.26,5.26,0,0,1-1.32-3.81,11.34,11.34,0,0,1,.94-4.54,8.41,8.41,0,0,1,2.49-3.38,5.42,5.42,0,0,1,3.42-1.21,4.33,4.33,0,0,1,2.9.84,2.92,2.92,0,0,1,1,2.34,4,4,0,0,1-2.09,3.56,11.45,11.45,0,0,1-6,1.29H177l-0.05,1a3.9,3.9,0,0,0,.78,2.58,3,3,0,0,0,2.4.93,6.24,6.24,0,0,0,1.63-.23,12.49,12.49,0,0,0,2.09-.83v1.84a11.34,11.34,0,0,1-2.09.78A8.47,8.47,0,0,1,179.73,141.73Zm1.75-12.51A3.37,3.37,0,0,0,179,130.4a7.74,7.74,0,0,0-1.75,3.29h0.15a10.28,10.28,0,0,0,4.4-.75,2.35,2.35,0,0,0,1.53-2.17,1.47,1.47,0,0,0-.46-1.11A2,2,0,0,0,181.48,129.22Z"/><path d="M200.34,141.48l-2.09-16.33h-0.1q-0.09.91-.36,2.49t-0.47,2.51l-2.39,11.33h-2l3.89-18.42h3.08l1.88,15.17h0.11l8.31-15.17h3.35l-3.82,18.42h-2.19q1.59-7.44,2.43-11.41t1.18-4.95H211l-9,16.36h-1.65Z"/><path d="M220.91,127.41A3.56,3.56,0,0,1,223,128a4.05,4.05,0,0,1,1.41,1.8h0.14l0.84-2.17H227L224,141.48h-1.68l0.33-2.63h-0.1q-2.26,2.89-4.75,2.89a3.32,3.32,0,0,1-2.75-1.25,5.33,5.33,0,0,1-1-3.41,13,13,0,0,1,.89-4.86,8.41,8.41,0,0,1,2.47-3.52A5.38,5.38,0,0,1,220.91,127.41ZM218.52,140a3.55,3.55,0,0,0,2.43-1.17,8.64,8.64,0,0,0,2-3,9.94,9.94,0,0,0,.76-3.75A2.94,2.94,0,0,0,223,130a2.4,2.4,0,0,0-1.85-.77,3.47,3.47,0,0,0-2.44,1.08,7.31,7.31,0,0,0-1.77,2.94,11.83,11.83,0,0,0-.64,3.91,3.3,3.3,0,0,0,.59,2.15A2,2,0,0,0,218.52,140Z"/><path d="M236.06,141.48l1.87-8.72a11.49,11.49,0,0,0,.25-1.81,1.79,1.79,0,0,0-.45-1.27,1.88,1.88,0,0,0-1.43-.48,3.74,3.74,0,0,0-2.19.76,6.73,6.73,0,0,0-1.88,2.16,11.33,11.33,0,0,0-1.23,3.39l-1.27,6h-2.12l2.95-13.81h1.75L232,130.22h0.13A8.42,8.42,0,0,1,234.5,128a4.7,4.7,0,0,1,2.34-.64,3.53,3.53,0,0,1,2.53.88,3.21,3.21,0,0,1,.93,2.45A10.34,10.34,0,0,1,240,133l-1.8,8.47h-2.14Z"/><path d="M249.25,127.41a3.56,3.56,0,0,1,2.07.62,4.06,4.06,0,0,1,1.41,1.8h0.14l0.84-2.17h1.6l-2.94,13.81H250.7l0.33-2.63h-0.1q-2.26,2.89-4.75,2.89a3.32,3.32,0,0,1-2.75-1.25,5.33,5.33,0,0,1-1-3.41,13,13,0,0,1,.89-4.86,8.41,8.41,0,0,1,2.47-3.52A5.38,5.38,0,0,1,249.25,127.41ZM246.86,140a3.55,3.55,0,0,0,2.43-1.17,8.64,8.64,0,0,0,2-3A9.94,9.94,0,0,0,252,132a2.94,2.94,0,0,0-.71-2.07,2.4,2.4,0,0,0-1.85-.77,3.47,3.47,0,0,0-2.44,1.08,7.32,7.32,0,0,0-1.77,2.94,11.85,11.85,0,0,0-.64,3.91,3.3,3.3,0,0,0,.59,2.15A2,2,0,0,0,246.86,140Z"/><path d="M269.07,127.67L268.76,129l-2.66.3a3.54,3.54,0,0,1,.52,2,5.11,5.11,0,0,1-1.47,3.84,5.38,5.38,0,0,1-3.93,1.43,4.22,4.22,0,0,1-1.06-.1q-1.75.67-1.75,1.65a0.67,0.67,0,0,0,.42.69,5,5,0,0,0,1.21.27l1.47,0.18a6.56,6.56,0,0,1,3.31,1.11,3,3,0,0,1,1,2.44,4.12,4.12,0,0,1-1.84,3.59,9,9,0,0,1-5.18,1.27,6.83,6.83,0,0,1-3.83-.93,3,3,0,0,1-1.39-2.61,3.25,3.25,0,0,1,.91-2.29,7.08,7.08,0,0,1,2.94-1.65,1.64,1.64,0,0,1-1-1.53,2,2,0,0,1,.64-1.49A6.62,6.62,0,0,1,258.9,136a3.31,3.31,0,0,1-1.8-3,5.54,5.54,0,0,1,1.51-4,5.11,5.11,0,0,1,3.85-1.56,7.59,7.59,0,0,1,1.94.25h4.68Zm-13.42,16.27a1.78,1.78,0,0,0,.82,1.54,4.27,4.27,0,0,0,2.43.57,6.8,6.8,0,0,0,3.59-.8,2.52,2.52,0,0,0,1.29-2.26,1.41,1.41,0,0,0-.68-1.24,5.46,5.46,0,0,0-2.32-.63l-2-.2a4.54,4.54,0,0,0-2.32,1.11A2.58,2.58,0,0,0,255.65,143.94Zm3.5-11a2.2,2.2,0,0,0,.57,1.63,2.14,2.14,0,0,0,1.58.56,2.92,2.92,0,0,0,1.74-.53,3.37,3.37,0,0,0,1.14-1.46,5.05,5.05,0,0,0,.4-2,2.11,2.11,0,0,0-.55-1.57,2.18,2.18,0,0,0-1.59-.54,2.94,2.94,0,0,0-1.72.51,3.35,3.35,0,0,0-1.15,1.42A4.79,4.79,0,0,0,259.16,132.91Z"/><path d="M273.77,141.73a4.82,4.82,0,0,1-3.64-1.37,5.26,5.26,0,0,1-1.32-3.81,11.35,11.35,0,0,1,.94-4.54,8.41,8.41,0,0,1,2.49-3.38,5.42,5.42,0,0,1,3.41-1.21,4.34,4.34,0,0,1,2.9.84,2.93,2.93,0,0,1,1,2.34,4,4,0,0,1-2.09,3.56,11.45,11.45,0,0,1-6,1.29H271l-0.05,1a3.9,3.9,0,0,0,.78,2.58,3,3,0,0,0,2.4.93,6.24,6.24,0,0,0,1.63-.23,12.47,12.47,0,0,0,2.09-.83v1.84a11.34,11.34,0,0,1-2.09.78A8.47,8.47,0,0,1,273.77,141.73Zm1.75-12.51a3.37,3.37,0,0,0-2.44,1.18,7.74,7.74,0,0,0-1.75,3.29h0.15a10.28,10.28,0,0,0,4.4-.75,2.35,2.35,0,0,0,1.53-2.17,1.47,1.47,0,0,0-.46-1.11A2,2,0,0,0,275.53,129.22Z"/><path d="M288.51,141.48l1.87-8.72a10.36,10.36,0,0,0,.23-1.7,2.16,2.16,0,0,0-.39-1.37,1.61,1.61,0,0,0-1.34-.49,3.38,3.38,0,0,0-2.06.76,6.58,6.58,0,0,0-1.76,2.16,12.46,12.46,0,0,0-1.18,3.38l-1.27,6h-2.12l2.95-13.81h1.75l-0.28,2.56H285a7.89,7.89,0,0,1,2.19-2.16,4.31,4.31,0,0,1,2.25-.66,2.86,2.86,0,0,1,2.19.82,3.75,3.75,0,0,1,.91,2.28h0.1a8.1,8.1,0,0,1,2.31-2.34,4.63,4.63,0,0,1,2.47-.76,3.39,3.39,0,0,1,2.48.86,3.34,3.34,0,0,1,.88,2.5,12,12,0,0,1-.28,2.24l-1.81,8.47h-2.14l1.87-8.72a11.55,11.55,0,0,0,.25-1.84,1.59,1.59,0,0,0-1.8-1.73,3.39,3.39,0,0,0-2,.73,6.36,6.36,0,0,0-1.75,2.07,11.28,11.28,0,0,0-1.14,3.18l-1.35,6.3h-2.12Z"/><path d="M307.88,141.73a4.82,4.82,0,0,1-3.64-1.37,5.26,5.26,0,0,1-1.32-3.81,11.35,11.35,0,0,1,.94-4.54,8.41,8.41,0,0,1,2.49-3.38,5.42,5.42,0,0,1,3.41-1.21,4.34,4.34,0,0,1,2.9.84,2.93,2.93,0,0,1,1,2.34,4,4,0,0,1-2.09,3.56,11.45,11.45,0,0,1-6,1.29h-0.42l-0.05,1a3.9,3.9,0,0,0,.78,2.58,3,3,0,0,0,2.4.93,6.24,6.24,0,0,0,1.63-.23,12.47,12.47,0,0,0,2.09-.83v1.84a11.34,11.34,0,0,1-2.09.78A8.47,8.47,0,0,1,307.88,141.73Zm1.75-12.51a3.37,3.37,0,0,0-2.44,1.18,7.74,7.74,0,0,0-1.75,3.29h0.15a10.28,10.28,0,0,0,4.4-.75,2.35,2.35,0,0,0,1.53-2.17,1.47,1.47,0,0,0-.46-1.11A2,2,0,0,0,309.63,129.22Z"/><path d="M323,141.48l1.87-8.72a11.49,11.49,0,0,0,.25-1.81,1.79,1.79,0,0,0-.45-1.27,1.88,1.88,0,0,0-1.43-.48,3.74,3.74,0,0,0-2.19.76,6.73,6.73,0,0,0-1.88,2.16,11.33,11.33,0,0,0-1.23,3.39l-1.27,6h-2.12l2.95-13.81h1.75L319,130.22h0.13a8.42,8.42,0,0,1,2.34-2.17,4.7,4.7,0,0,1,2.34-.64,3.53,3.53,0,0,1,2.53.88,3.21,3.21,0,0,1,.93,2.45A10.34,10.34,0,0,1,327,133l-1.8,8.47H323Z"/><path d="M333.14,140a6.8,6.8,0,0,0,1.81-.33v1.63a5.85,5.85,0,0,1-1.06.3,5.43,5.43,0,0,1-1,.13,3.5,3.5,0,0,1-2.41-.75,2.84,2.84,0,0,1-.84-2.24,9.14,9.14,0,0,1,.23-1.89l1.6-7.59H329.3l0.18-.92,2.33-1,1.58-2.87h1.24l-0.69,3.18h3.45l-0.33,1.6h-3.44L332,136.88a9,9,0,0,0-.23,1.66,1.5,1.5,0,0,0,.37,1.08A1.35,1.35,0,0,0,333.14,140Z"/><path d="M356.71,127.8a5.75,5.75,0,0,1-2.07,4.78q-2.07,1.65-6.06,1.65h-1.7l-1.55,7.25h-2.14l3.89-18.42h4.16a6.11,6.11,0,0,1,4.08,1.19A4.44,4.44,0,0,1,356.71,127.8Zm-9.44,4.59h1.68a6.43,6.43,0,0,0,4.13-1.15,4.08,4.08,0,0,0,1.41-3.37,2.74,2.74,0,0,0-.88-2.27,4.28,4.28,0,0,0-2.69-.7h-2.05Z"/><path d="M359,141.48h-2.12L361,121.87h2.12Z"/><path d="M370.18,127.41a3.56,3.56,0,0,1,2.07.62,4.06,4.06,0,0,1,1.41,1.8h0.14l0.84-2.17h1.6l-2.94,13.81h-1.68l0.33-2.63h-0.1q-2.26,2.89-4.75,2.89a3.32,3.32,0,0,1-2.75-1.25,5.33,5.33,0,0,1-1-3.41,13,13,0,0,1,.89-4.86,8.41,8.41,0,0,1,2.47-3.52A5.38,5.38,0,0,1,370.18,127.41ZM367.78,140a3.55,3.55,0,0,0,2.43-1.17,8.64,8.64,0,0,0,2-3,9.94,9.94,0,0,0,.76-3.75,2.94,2.94,0,0,0-.71-2.07,2.4,2.4,0,0,0-1.85-.77,3.47,3.47,0,0,0-2.44,1.08,7.32,7.32,0,0,0-1.77,2.94,11.85,11.85,0,0,0-.64,3.91,3.3,3.3,0,0,0,.59,2.15A2,2,0,0,0,367.78,140Z"/><path d="M381.12,140a6.8,6.8,0,0,0,1.81-.33v1.63a5.85,5.85,0,0,1-1.06.3,5.43,5.43,0,0,1-1,.13,3.5,3.5,0,0,1-2.41-.75,2.84,2.84,0,0,1-.84-2.24,9.14,9.14,0,0,1,.23-1.89l1.6-7.59h-2.17l0.18-.92,2.33-1,1.58-2.87h1.24l-0.69,3.18h3.45l-0.33,1.6h-3.44L380,136.88a9,9,0,0,0-.23,1.66,1.5,1.5,0,0,0,.37,1.08A1.35,1.35,0,0,0,381.12,140Z"/><path d="M382.63,147.68a4.47,4.47,0,0,1-1.57-.26v-1.78a4.43,4.43,0,0,0,1.41.28,1.66,1.66,0,0,0,1.47-.78,6.68,6.68,0,0,0,.83-2.23l2.86-13.64H385.2l0.16-.84,2.6-.83,0.29-1.26a7.46,7.46,0,0,1,1.61-3.56,4.1,4.1,0,0,1,3-1,6.57,6.57,0,0,1,1.23.15,5.78,5.78,0,0,1,1.13.32l-0.54,1.63a4.91,4.91,0,0,0-1.73-.37,2.22,2.22,0,0,0-1.68.61,4.85,4.85,0,0,0-1,2.24l-0.32,1.36h3l-0.32,1.6h-3l-2.92,13.84a7.2,7.2,0,0,1-1.51,3.48A3.49,3.49,0,0,1,382.63,147.68Z"/><path d="M399.55,127.49a5,5,0,0,1,3.78,1.42,5.34,5.34,0,0,1,1.39,3.9,11.18,11.18,0,0,1-.91,4.47,7.73,7.73,0,0,1-2.46,3.25,5.74,5.74,0,0,1-3.5,1.15,5,5,0,0,1-3.79-1.42,5.37,5.37,0,0,1-1.37-3.89,11.14,11.14,0,0,1,.92-4.51,7.63,7.63,0,0,1,2.48-3.24A5.78,5.78,0,0,1,399.55,127.49Zm3,5a3.44,3.44,0,0,0-.79-2.35,2.69,2.69,0,0,0-2.14-.9,3.69,3.69,0,0,0-2.46.93,6,6,0,0,0-1.69,2.59,10.78,10.78,0,0,0-.6,3.69,3.72,3.72,0,0,0,.8,2.55,2.91,2.91,0,0,0,2.3.9,3.48,3.48,0,0,0,2.36-.92,6,6,0,0,0,1.63-2.62A11.82,11.82,0,0,0,402.53,132.52Z"/><path d="M414.84,127.41a5.75,5.75,0,0,1,1.51.18l-0.45,1.89a5.54,5.54,0,0,0-1.32-.16,3.5,3.5,0,0,0-2.15.76,6.61,6.61,0,0,0-1.75,2.1,10.67,10.67,0,0,0-1.1,3l-1.35,6.33H406.1l2.95-13.81h1.75l-0.28,2.56h0.13a12.36,12.36,0,0,1,1.5-1.72,4.75,4.75,0,0,1,1.24-.81A3.57,3.57,0,0,1,414.84,127.41Z"/><path d="M423.79,141.48l1.87-8.72a10.36,10.36,0,0,0,.23-1.7,2.16,2.16,0,0,0-.39-1.37,1.61,1.61,0,0,0-1.34-.49,3.38,3.38,0,0,0-2.06.76,6.58,6.58,0,0,0-1.76,2.16,12.46,12.46,0,0,0-1.18,3.38l-1.27,6h-2.12l2.95-13.81h1.75l-0.28,2.56h0.13a7.89,7.89,0,0,1,2.19-2.16,4.31,4.31,0,0,1,2.25-.66,2.86,2.86,0,0,1,2.19.82,3.75,3.75,0,0,1,.91,2.28h0.1a8.1,8.1,0,0,1,2.31-2.34,4.63,4.63,0,0,1,2.47-.76,3.39,3.39,0,0,1,2.48.86,3.34,3.34,0,0,1,.88,2.5,12,12,0,0,1-.28,2.24L434,141.48h-2.14l1.87-8.72a11.55,11.55,0,0,0,.25-1.84,1.59,1.59,0,0,0-1.8-1.73,3.39,3.39,0,0,0-2,.73,6.36,6.36,0,0,0-1.75,2.07,11.28,11.28,0,0,0-1.14,3.18l-1.35,6.3h-2.12Z"/></svg>