<svg xmlns="http://www.w3.org/2000/svg" viewBox="0 0 480 177"><defs><style>.a{fill:#efd01d;}.b{fill:#fff;}</style></defs><title>Pantheon_Color_rev</title><rect width="480" height="177"/><polygon class="a" points="26.8 19.96 39.39 49.5 23.36 49.5 28.66 62.5 61.15 62.5 26.8 19.96"/><polygon class="a" points="69.52 127.5 64.15 114.5 56.72 114.5 46.1 89.5 39.43 89.5 50.05 114.5 31.15 114.5 66.08 157.04 53.49 127.5 69.52 127.5"/><path class="b" d="M73.84,75.5c0.39,0,1.31-.49,1.31-5s-0.92-5-1.31-5H51.46l4.25,10H73.84Z"/><path class="b" d="M60.8,87.5h15c0.4,0,1.31-.49,1.31-5s-0.92-5-1.31-5H56.56Z"/><path class="b" d="M73.84,101.5H53.62l4.25,10h16c0.39,0,1.31-.49,1.31-5S74.24,101.5,73.84,101.5Z"/><path class="b" d="M75.84,89.5H48.53l4.25,10H75.84c0.4,0,1.31-.49,1.31-5S76.24,89.5,75.84,89.5Z"/><path class="b" d="M73.84,101.5H53.62l4.25,10h16c0.39,0,1.31-.49,1.31-5S74.24,101.5,73.84,101.5Z"/><path class="b" d="M75.84,89.5H48.53l4.25,10H75.84c0.4,0,1.31-.49,1.31-5S76.24,89.5,75.84,89.5Z"/><path class="b" d="M45.25,87.5l-5.09-12h2.43l5.1,12H58.5l-9.34-22H25.83c-1.8,0-2.78,0-3.59,2.6-1,3.11-1.08,9-1.08,20.4s0.11,17.29,1.08,20.4c0.81,2.6,1.8,2.6,3.59,2.6H46.29l-10.14-24h9.09Z"/><path class="b" d="M162.15,68.53h-11l-16,41h11.22l2.81-7h14.57l2.65,7h11.28Zm-10,26,4.37-13.12h0.11l4.32,13.12h-8.8Z"/><path class="b" d="M120.34,68.5H104.15v41h11v-14h5.56c9.23,0,14.41-4,14.41-13.61C135.13,72.55,129.09,68.5,120.34,68.5Zm-3.84,19h-1.35v-10h1.35c4.11,0,7.61-.08,7.61,5.05C124.12,87.5,120.34,87.5,116.51,87.5Z"/><polygon class="b" points="327.15 93.5 338.15 93.52 338.15 84.5 327.15 84.5 327.15 77.5 342.15 77.5 342.15 68.5 316.15 68.5 316.15 109.5 342.15 109.5 342.15 99.5 327.15 99.5 327.15 93.5"/><polygon class="b" points="231.15 79.5 241.15 79.5 241.21 109.5 252.15 109.5 252.15 79.5 262.15 79.5 262.15 68.5 231.15 68.5 231.15 79.5"/><polygon class="b" points="296.15 84.5 281.15 84.5 281.15 68.5 270.15 68.5 270.15 109.5 281.15 109.5 281.15 93.5 296.15 93.5 296.15 109.5 307.15 109.5 307.15 68.5 296.15 68.5 296.15 84.5"/><path class="b" d="M368.65,79.5a9.5,9.5,0,1,1-9.5,9.5,9.51,9.51,0,0,1,9.5-9.5m0-11A20.5,20.5,0,1,0,389.15,89a20.5,20.5,0,0,0-20.5-20.5h0Z"/><polygon class="b" points="425.12 91.46 407.5 68.5 397.15 68.5 397.15 109.5 408.19 109.5 408.15 86.5 424.99 109.5 436.15 109.5 436.15 68.5 425.15 68.5 425.12 91.46"/><polygon class="b" points="212.12 91.46 194.5 68.5 184.15 68.5 184.15 109.5 195.19 109.5 195.15 86.5 211.99 109.5 223.15 109.5 223.15 68.5 212.15 68.5 212.12 91.46"/><path class="b" d="M442.85,76.67a7.67,7.67,0,0,1,.63-3.11,8.13,8.13,0,0,1,4.26-4.26,7.93,7.93,0,0,1,6.21,0,8.13,8.13,0,0,1,4.26,4.26,7.93,7.93,0,0,1,0,6.21A8.13,8.13,0,0,1,454,84a7.93,7.93,0,0,1-6.21,0,8.13,8.13,0,0,1-4.26-4.26A7.67,7.67,0,0,1,442.85,76.67Zm1.42,0a6.43,6.43,0,0,0,.52,2.56,6.56,6.56,0,0,0,3.5,3.5,6.61,6.61,0,0,0,5.12,0,6.55,6.55,0,0,0,3.5-3.5,6.61,6.61,0,0,0,0-5.12,6.55,6.55,0,0,0-3.5-3.5,6.6,6.6,0,0,0-5.12,0,6.56,6.56,0,0,0-3.5,3.5A6.43,6.43,0,0,0,444.27,76.67Zm3.5-4.62h3.53a3.55,3.55,0,0,1,2.44.71,2.61,2.61,0,0,1,.79,2,2.42,2.42,0,0,1-.62,1.81,2.58,2.58,0,0,1-1.55.71l2.37,3.87H453l-2.28-3.74h-1.23v3.74h-1.68V72Zm1.68,4h1.23c0.26,0,.52,0,0.77,0a2.32,2.32,0,0,0,.7-0.16,1.19,1.19,0,0,0,.51-0.39,1.4,1.4,0,0,0,0-1.42,1.18,1.18,0,0,0-.51-0.39,2.13,2.13,0,0,0-.7-0.15l-0.77,0h-1.23V76Z"/></svg>