<svg xmlns="http://www.w3.org/2000/svg" viewBox="0 0 437.69 137.08"><defs><style>.a{fill:#efd01d;}.b{fill:#231f20;}</style></defs><title>Pantheon_Color</title><polygon class="a" points="5.64 0 18.24 29.54 2.21 29.54 7.51 42.53 40 42.53 5.64 0"/><polygon class="a" points="48.36 107.53 43 94.53 35.56 94.53 24.94 69.53 18.28 69.53 28.89 94.53 10 94.53 44.93 137.07 32.33 107.53 48.36 107.53"/><path d="M73.84,75.5c0.39,0,1.31-.49,1.31-5s-0.92-5-1.31-5H51.46l4.25,10H73.84Z" transform="translate(-21.15 -19.96)"/><path d="M60.8,87.5h15c0.4,0,1.31-.49,1.31-5s-0.92-5-1.31-5H56.56Z" transform="translate(-21.15 -19.96)"/><path d="M73.84,101.5H53.62l4.25,10h16c0.39,0,1.31-.49,1.31-5S74.24,101.5,73.84,101.5Z" transform="translate(-21.15 -19.96)"/><path d="M75.84,89.5H48.53l4.25,10H75.84c0.4,0,1.31-.49,1.31-5S76.24,89.5,75.84,89.5Z" transform="translate(-21.15 -19.96)"/><path d="M73.84,101.5H53.62l4.25,10h16c0.39,0,1.31-.49,1.31-5S74.24,101.5,73.84,101.5Z" transform="translate(-21.15 -19.96)"/><path d="M75.84,89.5H48.53l4.25,10H75.84c0.4,0,1.31-.49,1.31-5S76.24,89.5,75.84,89.5Z" transform="translate(-21.15 -19.96)"/><path d="M45.25,87.5l-5.09-12h2.43l5.1,12H58.5l-9.34-22H25.83c-1.8,0-2.78,0-3.59,2.6-1,3.11-1.08,9-1.08,20.4s0.11,17.29,1.08,20.4c0.81,2.6,1.8,2.6,3.59,2.6H46.29l-10.14-24h9.09Z" transform="translate(-21.15 -19.96)"/><path d="M162.15,68.53h-11l-16,41h11.22l2.81-7h14.57l2.65,7h11.28Zm-10,26,4.37-13.12h0.11l4.32,13.12h-8.8Z" transform="translate(-21.15 -19.96)"/><path d="M120.34,68.5H104.15v41h11v-14h5.56c9.23,0,14.41-4,14.41-13.61C135.13,72.55,129.09,68.5,120.34,68.5Zm-3.84,19h-1.35v-10h1.35c4.11,0,7.61-.08,7.61,5.05C124.12,87.5,120.34,87.5,116.51,87.5Z" transform="translate(-21.15 -19.96)"/><polygon points="306 73.53 317 73.56 317 64.53 306 64.53 306 57.53 321 57.53 321 48.53 295 48.53 295 89.53 321 89.53 321 79.53 306 79.53 306 73.53"/><polygon points="210 59.53 220 59.53 220.06 89.53 231 89.53 231 59.53 241 59.53 241 48.53 210 48.53 210 59.53"/><polygon points="275 64.53 260 64.53 260 48.53 249 48.53 249 89.53 260 89.53 260 73.53 275 73.53 275 89.53 286 89.53 286 48.53 275 48.53 275 64.53"/><path d="M368.65,79.5a9.5,9.5,0,1,1-9.5,9.5,9.51,9.51,0,0,1,9.5-9.5m0-11A20.5,20.5,0,1,0,389.15,89a20.5,20.5,0,0,0-20.5-20.5h0Z" transform="translate(-21.15 -19.96)"/><polygon points="403.96 71.5 386.34 48.53 376 48.53 376 89.53 387.04 89.53 387 66.53 403.84 89.53 415 89.53 415 48.53 404 48.53 403.96 71.5"/><polygon points="190.96 71.5 173.34 48.53 163 48.53 163 89.53 174.04 89.53 174 66.53 190.84 89.53 202 89.53 202 48.53 191 48.53 190.96 71.5"/><path class="b" d="M442.85,76.67a7.67,7.67,0,0,1,.63-3.11,8.13,8.13,0,0,1,4.26-4.26,7.93,7.93,0,0,1,6.21,0,8.13,8.13,0,0,1,4.26,4.26,7.93,7.93,0,0,1,0,6.21A8.13,8.13,0,0,1,454,84a7.93,7.93,0,0,1-6.21,0,8.13,8.13,0,0,1-4.26-4.26A7.67,7.67,0,0,1,442.85,76.67Zm1.42,0a6.43,6.43,0,0,0,.52,2.56,6.56,6.56,0,0,0,3.5,3.5,6.61,6.61,0,0,0,5.12,0,6.55,6.55,0,0,0,3.5-3.5,6.61,6.61,0,0,0,0-5.12,6.55,6.55,0,0,0-3.5-3.5,6.6,6.6,0,0,0-5.12,0,6.56,6.56,0,0,0-3.5,3.5A6.43,6.43,0,0,0,444.27,76.67Zm3.5-4.62h3.53a3.55,3.55,0,0,1,2.44.71,2.61,2.61,0,0,1,.79,2,2.42,2.42,0,0,1-.62,1.81,2.58,2.58,0,0,1-1.55.71l2.37,3.87H453l-2.28-3.74h-1.23v3.74h-1.68V72Zm1.68,4h1.23c0.26,0,.52,0,0.77,0a2.32,2.32,0,0,0,.7-0.16,1.19,1.19,0,0,0,.51-0.39,1.4,1.4,0,0,0,0-1.42,1.18,1.18,0,0,0-.51-0.39,2.13,2.13,0,0,0-.7-0.15l-0.77,0h-1.23V76Z" transform="translate(-21.15 -19.96)"/></svg>